<svg width="100" height="100" viewBox="0 0 100 100" fill="none" xmlns="http://www.w3.org/2000/svg">
<rect width="100" height="100" fill="#930507"/>
<path d="M25.814 31.872L32.21 56.624H32.314L38.71 31.872H52.958V69H43.858V40.816H43.754L35.954 69H28.57L20.77 40.816H20.666V69H11.566V31.872H25.814ZM77.8026 31.872C81.6853 31.872 84.7706 32.8427 87.0586 34.784C89.3813 36.6907 90.5426 39.204 90.5426 42.324C90.5426 44.404 90.0573 46.2933 89.0866 47.992C88.116 49.6907 86.66 50.904 84.7186 51.632V51.736C88.0813 52.6373 89.9186 55.9827 90.2306 61.772C90.404 65.724 90.8893 68.1333 91.6866 69H82.1186C81.5986 68.2027 81.2693 66.4867 81.1306 63.852C80.888 60.4893 80.316 58.2533 79.4146 57.144C78.548 56.0347 77.3346 55.48 75.7746 55.48H68.2866V69H58.6146V31.872H77.8026ZM76.5546 47.992C77.9066 47.992 78.964 47.628 79.7266 46.9C80.4893 46.172 80.8706 45.0973 80.8706 43.676C80.8706 42.3587 80.42 41.3533 79.5186 40.66C78.652 39.9667 77.5253 39.62 76.1386 39.62H68.2866V47.992H76.5546Z" fill="white"/>
</svg>
